# xmcd
#
# Track frame offsets:
#	150
#	16448
#	31920
#	49015
#	65503
#	82396
#	96459
#	113135
#	127014
#	142985
#	159018
#
# Disc length: 2391 seconds
# Revision: 0
# Processed by: cddbd v1.5.2PL0 Copyright (c) Steve Scherf et al.
# Submitted via: dBpowerAMP V12.0
#
DISCID=9209550b
DTITLE=Sound Tesselated - Homeless
DYEAR=2000
DGENRE=Synthpop
TTITLE0=Troubles Of Yesterday
TTITLE1=Time After Time
TTITLE2=Take My Heart
TTITLE3=Somewhere
TTITLE4=Gone
TTITLE5=Never Reach My Heart
TTITLE6=Sorry
TTITLE7=Rush Down
TTITLE8=Night
TTITLE9=Hit Me
TTITLE10=Strong
EXTD=
EXTT0=
EXTT1=
EXTT2=
EXTT3=
EXTT4=
EXTT5=
EXTT6=
EXTT7=
EXTT8=
EXTT9=
EXTT10=
PLAYORDER=
